<?xml version="1.0" encoding="UTF-8"?>
<svg xmlns="http://www.w3.org/2000/svg" version="1.1" viewBox="0 0 3000 2000">
  <!-- Generator: Adobe Illustrator 30.0.0, SVG Export Plug-In . SVG Version: 2.1.1 Build 123)  -->
  <defs>
    <style>
      .st0 {
        fill: #fff4dc;
      }

      .st1 {
        fill: #560c03;
      }

      .st2 {
        fill: #ed8a83;
      }

      .st3 {
        fill: #d82167;
      }

      .st4 {
        fill: #543782;
      }

      .st5 {
        fill: #ff78af;
      }

      .st6 {
        fill: #84f4e1;
      }

      .st7 {
        fill: #8054a5;
      }

      .st8 {
        fill: #f467a7;
      }

      .st9 {
        fill: #490e14;
      }

      .st10 {
        fill: #54d3c1;
      }

      .st11 {
        fill: #f9ce95;
      }

      .st12 {
        fill: #b88de2;
      }

      .st13 {
        fill: #b998d8;
      }

      .st14 {
        fill: #8e2a20;
      }

      .st15 {
        fill: #eb5b26;
      }

      .st16 {
        fill: #ffebcc;
      }

      .st17 {
        fill: #b71658;
      }

      .st18 {
        fill: #6b499b;
      }

      .st19 {
        fill: #f29100;
      }

      .st20 {
        fill: #067d5f;
      }

      .st21 {
        fill: #065b43;
      }

      .st22 {
        fill: #f9ada5;
      }

      .st23 {
        fill: #06ad9e;
      }

      .st24 {
        fill: #e3d0f7;
      }

      .st25 {
        fill: #e63270;
      }

      .st26 {
        fill: #ea4f88;
      }

      .st27 {
        fill: #fbb333;
      }

      .st28 {
        fill: #6c1100;
      }

      .st29 {
        fill: #ce7d09;
      }
    </style>
  </defs>
  <g id="Layer_1">
    <rect class="st27" x=".04" width="3000" height="2000"/>
  </g>
  <g id="Layer_9">
    <path class="st19" d="M54.98,104.08c33.91-27.39,80.64-19.76,120.66-15.7,19.14,1.99,38.04,3.71,57.09,1.29,19.66-2.28,37.99-7.01,58.13-10.76,13.66-2.6,27.67-4.28,41.49-5.55,33.85-2.77,68.08-2.63,101.89-2.72,33.42-.05,67.48.49,100.93,1.5,53.84,1.75,107.7,4.53,161.62,10.69l.03,2-80.69,1.8c-58.4,1.08-143.62,2.65-201.75,3.71-40.21.86-80.73.73-120.45,7.28-13.23,2.14-26.44,4.78-39.81,6.74-13.35,1.96-26.95,3.19-40.54,2.52-27.04-1.27-53.32-7.97-79.98-11.51-19.77-2.68-40.23-3.74-59.45,2.25-6.34,1.98-12.44,4.72-18.11,8.17l-1.05-1.7h0Z"/>
    <path class="st19" d="M457.36,175.81c25.46-13.98,54.73-19.97,83.56-21.1,56.95-2.45,112.78,10.63,169.42,12.09,27.93.96,55.6.19,83.73-.61,112.73-3.17,226.98-3.94,339.71-1.69,75.52,1.71,151.05,4.24,226.63,10.32l.03,2c-125.95,2.38-325.37,5.06-452.9,6.99-66.98-.16-160.74,5.02-226.54-2.61-73.62-8.05-151.22-33.28-222.85-3.56,0,0-.79-1.84-.79-1.84h0Z"/>
    <path class="st19" d="M1057.15,79.47c96.08-3.14,192.17-.48,288.2-1.57,183.28-3.39,367.34-8.74,550.34,5.37,0,0,.04,2,.04,2-116.77,3.24-301.24,7.27-419.44,10.07-69.92,1.61-139.95,1.8-209.84-1.18-69.9-2.72-139.68-7.63-209.43-12.69,0,0,.13-2,.13-2h0Z"/>
    <path class="st19" d="M143.74,295.69c36.98-25.1,84.17-27.65,127.36-23.93,41.96,3.41,83.88,12.68,125.89,14.87,13.65.72,27.45.96,41.38.79,127.83-2.35,256.17-3.12,383.6,9.66,0,0,.04,2,.04,2-42.67,1.13-127.89,3.14-170.51,3.98-60.73.3-197.34,6.81-255.94,2.48-56.8-4.24-111.72-22.33-168.65-23.99-21.16-.66-42.52,1.39-62.7,7.95-6.71,2.17-13.22,4.92-19.58,7.99l-.9-1.78h0Z"/>
    <path class="st19" d="M35.61,551.86c35.18-16.7,74.72-23.76,113.59-22.11,31.13.94,62.16,10.49,93.07,12.39,18.22,1.05,35.9.12,54.59-.67,113.42-3.95,227.12-4.71,340.29,7.07,0,0,.06,2,.06,2-115.39,3.55-262.08,9.61-377.65,11.02-12.66-.28-25.36-1.4-37.83-3.68-24.81-4.47-48.92-11.97-74-14.45-12.45-1.34-24.98-1.83-37.5-1.51-25.04.55-50.02,4.61-74.03,11.86l-.6-1.91h0Z"/>
    <path class="st19" d="M1518.7,1623.74c35.18-16.7,74.72-23.76,113.59-22.11,31.13.94,62.16,10.49,93.07,12.39,18.22,1.05,35.9.12,54.59-.67,113.42-3.95,227.12-4.71,340.29,7.07,0,0,.06,2,.06,2-115.39,3.55-262.08,9.61-377.65,11.02-12.66-.28-25.36-1.4-37.83-3.68-24.81-4.47-48.92-11.97-74-14.45-12.45-1.34-24.98-1.83-37.5-1.51-25.04.55-50.02,4.61-74.03,11.86l-.6-1.91h0Z"/>
    <path class="st19" d="M1114.88,1450c35.18-16.7,74.72-23.76,113.59-22.11,31.13.94,62.16,10.49,93.07,12.39,18.22,1.05,35.9.12,54.59-.67,113.42-3.95,227.12-4.71,340.29,7.07,0,0,.06,2,.06,2-115.39,3.55-262.08,9.61-377.65,11.02-12.66-.28-25.36-1.4-37.83-3.68-24.81-4.47-48.92-11.97-74-14.45-12.45-1.34-24.98-1.83-37.5-1.51-25.04.55-50.02,4.61-74.03,11.86l-.6-1.91h0Z"/>
    <path class="st19" d="M1481.14,1168.26c35.18-16.7,74.72-23.76,113.59-22.11,31.13.94,62.16,10.49,93.07,12.39,18.22,1.05,35.9.12,54.59-.67,113.42-3.95,227.12-4.71,340.29,7.07,0,0,.06,2,.06,2-115.39,3.55-262.08,9.61-377.65,11.02-12.66-.28-25.36-1.4-37.83-3.68-24.81-4.47-48.92-11.97-74-14.45-12.45-1.34-24.98-1.83-37.5-1.51-25.04.55-50.02,4.61-74.03,11.86l-.6-1.91h0Z"/>
    <path class="st19" d="M1124.27,853.65c35.18-16.7,74.72-23.76,113.59-22.11,31.13.94,62.16,10.49,93.07,12.39,18.22,1.05,35.9.12,54.59-.67,113.42-3.95,227.12-4.71,340.29,7.07,0,0,.06,2,.06,2-115.39,3.55-262.08,9.61-377.65,11.02-12.66-.28-25.36-1.4-37.83-3.68-24.81-4.47-48.92-11.97-74-14.45-12.45-1.34-24.98-1.83-37.5-1.51-25.04.55-50.02,4.61-74.03,11.86l-.6-1.91h0Z"/>
    <path class="st19" d="M2115.05,708.09c35.18-16.7,74.72-23.76,113.59-22.11,31.13.94,62.16,10.49,93.07,12.39,18.22,1.05,35.9.12,54.59-.67,113.42-3.95,227.12-4.71,340.29,7.07,0,0,.06,2,.06,2-115.39,3.55-262.08,9.61-377.65,11.02-12.66-.28-25.36-1.4-37.83-3.68-24.81-4.47-48.92-11.97-74-14.45-12.45-1.34-24.98-1.83-37.5-1.51-25.04.55-50.02,4.61-74.03,11.86l-.6-1.91h0Z"/>
    <path class="st19" d="M3000.04,869.27v16.53c-75.57,2.54-152.81,4.91-219.64,5.72-12.66-.28-25.37-1.4-37.83-3.67-24.81-4.47-48.91-11.97-74-14.46-12.44-1.34-24.98-1.83-37.5-1.51-15.34.34-30.65,1.99-45.72,4.9-4.06.77-8.1,1.64-12.12,2.6-2.62.62-5.22,1.28-7.82,1.98-2.8.75-5.59,1.54-8.37,2.38l-.6-1.91c4.94-2.34,9.96-4.5,15.06-6.46,1.9-.74,3.81-1.45,5.74-2.13,1.9-.68,3.82-1.33,5.74-1.95,27.96-9.09,57.69-12.82,87.05-11.57,31.13.93,62.16,10.49,93.07,12.39,18.22,1.05,35.9.12,54.6-.68,60.74-2.12,121.56-3.32,182.34-2.16Z"/>
    <path class="st19" d="M566.05,1758.59c-115.39,3.56-262.09,9.61-377.65,11.02-12.66-.28-25.37-1.4-37.83-3.68-24.81-4.46-48.91-11.97-74-14.45-12.44-1.34-24.98-1.83-37.5-1.51-13.07.29-26.12,1.53-39.03,3.7v-7.03c25.27-7.1,51.78-9.94,77.99-8.83,31.13.93,62.16,10.48,93.07,12.39,18.22,1.04,35.9.12,54.6-.68,113.42-3.95,227.11-4.71,340.29,7.07l.06,2Z"/>
    <path class="st19" d="M2260.61,576.61c35.18-16.7,74.72-23.76,113.59-22.11,31.13.94,62.16,10.49,93.07,12.39,18.22,1.05,35.9.12,54.59-.67,113.42-3.95,227.12-4.71,340.29,7.07,0,0,.06,2,.06,2-115.39,3.55-262.08,9.61-377.65,11.02-12.66-.28-25.36-1.4-37.83-3.68-24.81-4.47-48.92-11.97-74-14.45-12.45-1.34-24.98-1.83-37.5-1.51-25.04.55-50.02,4.61-74.03,11.86l-.6-1.91h0Z"/>
    <path class="st19" d="M361.9,796.77l-57.88,3.11c-53.73,2.25-120.34,6.57-173.81,7.92-9.75-.08-19.56-.96-29.14-2.73-28.62-5.26-55.66-16.34-84.18-21.81-5.59-1.13-11.21-2.14-16.85-3v-14.75c11.72.81,23.39,2.3,34.93,4.41,23.15,4.24,45.53,11.77,68.46,15.57,8.89,1.47,17.85,2.38,26.98,2.32,17.97.12,38.59-1.14,56.96-1.22,9.5-.1,18.98-.16,28.46-.14,48.73.05,97.23,1.88,145.98,8.32l.09,2Z"/>
    <path class="st19" d="M343.98,684.32c75.28,5.5,152.49,16.62,225.31-8.05,21.01-7.15,43.8-18.7,66.8-24.18,31.47-7.89,64.89-7.27,96.68-7.1,116.45,1.04,233.24,4.59,349.09,17.47,0,0,0,2,0,2l-93.1.33c-58.47.01-218.62.06-279.28.08-15.48.05-30.95.41-46.25,2.19-15.34,1.69-30.3,5.23-44.83,10.43-18.02,6.42-36.37,14.16-55.15,18.91-11.33,2.75-22.93,5.06-34.53,6.35-30.88,3.74-62.41,2.59-93.24-.96-30.91-3.6-61.43-9.5-91.88-15.51l.38-1.96h0Z"/>
    <path class="st19" d="M740.12,447.54c51.05-16.6,105.95-20.11,159.1-13.64,29.39,3.53,58.03,11.13,86.64,17.85,21.93,5.32,43.51,9.59,65.84,11.56,22.62,2.22,45.14,2.56,67.97,3.01,58.32.88,116.55,3,174.82,10.09,0,0,.06,2,.06,2l-69.78,2.44c-41.66.95-98.67,3.72-139.66,3.52-17.51-.15-35.06-1.05-52.46-3.22-40.62-5.13-79.34-18.85-119.19-27.26-31.19-6.56-63.09-9.98-94.97-10.14-26.11-.18-52.22,1.71-78.04,5.75,0,0-.33-1.97-.33-1.97h0Z"/>
    <path class="st19" d="M2174.96,117.54c24.01-9.03,49.81-13.25,75.42-13.89,98.68-2.49,195.23,41.99,290.35,50.24,14.86,1.54,29.9,2.28,45.04,2.82,30.2,1.09,61.83.81,92.08,1.34,77.39,1.25,155.06,3.83,232.16,11.34,0,0,.03,2,.03,2-46.41,1.01-139.18,2.82-185.54,3.54-55.21.39-131.45,4.22-185.68-1.15-30.91-2.86-61.39-9.34-91.39-17.11-74.38-18.95-148.5-47.07-226.33-43.66-15.37.74-30.69,2.83-45.66,6.46l-.48-1.94h0Z"/>
    <path class="st19" d="M1192.89,342.98c29.43,8.48,60.43,7.48,90.12,1.2,60.51-12.57,119.7-40.82,182.35-45.99,24.1-2.23,47.69-2.25,71.56-1.9,101.1,1.38,202.31,5.53,303.1,14.1,31.06,2.89,62.12,5.68,93.16,9.99l-.04,2-93.32-1.21c-58.52-.94-219.19-3.57-279.93-4.56-38.85-.62-77.71-2.5-116.18,2.93-53.93,7.78-105.22,28.31-159.32,35.39-23.27,2.89-47.13,2.91-70.02-2.68-7.6-1.91-15.04-4.43-22.28-7.42l.78-1.84h0Z"/>
    <path class="st19" d="M3000.04,441.86v13.17c-22.29-.89-42.82-1.72-58.29-2.38-56.47-3.15-135.17-2.75-190.25-12.49-34.78-6.26-68.12-18.11-102.04-27.7-12.87-3.65-25.82-6.96-38.97-9.52-6.58-1.19-13.81-2.44-20.46-3.19l-11.78-1.17-11.82-.61c-63.6-1.93-125.62,16-186.22,33.53l-.57-1.92c71.28-30.3,149.67-56.3,228.35-44.89,2.95.43,5.91.91,8.87,1.45,32.02,5.41,62.79,15.5,93.56,23.89,37.29,10.92,74.74,15.83,113.41,18.31,58.56,3.61,117.63,7.78,176.21,13.52Z"/>
    <path class="st19" d="M2458.25,274.09c53.13-47.73,134.2-33.67,197.85-27.19,48.62,5.22,98.35,7.84,147.43,12.95,16.73,1.82,33.42,3.8,50.04,6.96l.06,2c-16.62.66-33.24,1.32-49.87,1.83-49.94,1.26-99.97,1.21-149.75-3.86-64.42-6.58-135.08-24.99-194.73,9.02,0,0-1.03-1.71-1.03-1.71h0Z"/>
    <path class="st19" d="M1910.43,208.35c53.13-47.73,134.2-33.67,197.85-27.19,48.62,5.22,98.35,7.84,147.43,12.95,16.73,1.82,33.42,3.8,50.04,6.96l.06,2c-16.62.66-33.24,1.32-49.87,1.83-49.94,1.26-99.97,1.21-149.75-3.86-64.42-6.58-135.08-24.99-194.73,9.02,0,0-1.03-1.71-1.03-1.71h0Z"/>
    <path class="st19" d="M1694.43,471.31c53.13-47.73,134.2-33.67,197.85-27.19,48.62,5.22,98.35,7.84,147.43,12.95,16.73,1.82,33.42,3.8,50.04,6.96l.06,2c-16.62.66-33.24,1.32-49.87,1.83-49.94,1.26-99.97,1.21-149.75-3.86-64.42-6.58-135.08-24.99-194.73,9.02,0,0-1.03-1.71-1.03-1.71h0Z"/>
    <path class="st19" d="M3000.04,44.46v10.02c-1.77.06-3.55.11-5.32.17-38.48.96-77.02,1.15-115.45-1.13-11.45-.68-22.89-1.58-34.31-2.74-1.81-.18-3.62-.38-5.44-.58-25.24-2.81-51.37-7.13-77.35-9.18-25.39-1.99-50.64-1.81-74.79,4.13-12.73,3.11-25.16,7.83-37.14,14.66l-1.03-1.72c6.86-6.16,14.19-11.3,21.89-15.55,29.56-16.34,64.56-19.67,99.45-18.46,26.26.9,52.46,4.37,76.23,6.79.09.01.19.02.28.03,1.76.19,3.53.38,5.3.55,46.93,4.86,94.82,7.48,142.13,12.4,1.85.2,3.7.4,5.55.61Z"/>
    <path class="st19" d="M626.95,1914.44c53.13-47.73,134.2-33.67,197.85-27.19,48.62,5.22,98.35,7.84,147.43,12.95,16.73,1.82,33.42,3.8,50.04,6.96l.06,2c-16.62.66-33.24,1.32-49.87,1.83-49.94,1.26-99.97,1.21-149.75-3.86-64.42-6.58-135.08-24.99-194.73,9.02,0,0-1.03-1.71-1.03-1.71h0Z"/>
    <path class="st19" d="M1879.12,1961.4c53.13-47.73,134.2-33.67,197.85-27.19,48.62,5.22,98.35,7.84,147.43,12.95,16.73,1.82,33.42,3.8,50.04,6.96l.06,2c-16.62.66-33.24,1.32-49.87,1.83-49.94,1.26-99.97,1.21-149.75-3.86-64.42-6.58-135.08-24.99-194.73,9.02,0,0-1.03-1.71-1.03-1.71h0Z"/>
    <path class="st19" d="M1470.63,593.9c-8.15-5.54-6.83-18.07-1.06-24.98,1.16-1.47,2.76-2.86,4.24-4,5.86-4.4,13.15-6.46,20.08-7.68,6.56-1.11,12.78-1.92,19.3-2.75,15.94-1.87,32.23-3.07,48.24-3.56,38.32-1.32,76.83.76,115.03,3.21,15.65,1.03,31.55,2.13,47.21,3.16,110.48,7.47,221.03,7.3,331.65,18.92,0,0,.05,2,.05,2-25.37.84-50.74,1.67-76.11,2.38-76.15,1.81-152.38,2.46-228.49-1.69-50.76-2.78-101.22-8.83-151.8-12.27-28.41-1.96-56.97-2.91-85.45-2.21,0,0-9.49.35-9.49.35-9.31.43-19,.31-27.15,5.1-7.5,4.11-11.85,16.04-4.94,22.5,0,0-1.3,1.52-1.3,1.52h0Z"/>
    <path class="st19" d="M1849.71,782c87.22-40.23,186.53-5.97,276.51,5.35,96.55,13.11,194.23,6.84,292.14,11.02,0,0,.2,1.99.2,1.99-94.9,10.1-190.85,19.16-286.1,7.9-93.65-10.61-188.02-51.46-282.16-24.35,0,0-.59-1.91-.59-1.91h0Z"/>
    <path class="st19" d="M374.37,935.63c52.99-33.33,119.44-20.9,177.79-16.43,11.69,1.03,27.29,2.11,38.78,2.64,12.85.88,26.11,1.05,38.92,1.67,11.21.17,28.07.7,39.12.8,95.59,1.55,193.18-.99,287.03,19.8,16.29,3.55,32.39,8.19,48.21,13.35,0,0-.39,1.96-.39,1.96l-19.48-3.28c-8.87-1.64-20.32-2.93-29.34-4.1-88.41-10.63-177.81-6.79-266.64-7.5-29.05-.42-60.11-1.41-89.06-3.51-4.86-.43-14.87-1.28-19.75-1.71-55.55-4.21-110.95-20.85-166.79-12.9-12.93,1.99-25.64,5.56-37.56,11l-.84-1.81h0Z"/>
    <path class="st19" d="M665.52,1132.33l-.15,2c-29.25-1.88-58.56-2.53-87.87-2.38-105.35.45-211.11,10.96-316.28.22-6.75-.8-17.86-2.24-24.62-3.07-17.93-2.16-35.6-5.79-53.23-9.57-28.99-6.19-57.86-12.79-87.55-13.85-29.31-.94-58.39,3.39-87.59,5.6-2.73.22-5.46.41-8.19.57v-6.23c39.54-6.59,78.99-16.49,119.3-13.15,22.09,1.51,44.06,5.5,66,9.4,14.42,2.56,28.83,5.09,43.24,6.85,10.18,1.53,21.67,2.49,31.98,3.7,3.04.36,7.63.61,10.73.85,16.68,1.47,37.06,2.6,53.85,3.2,113.12,4.32,228.49-5.45,340.38,15.86Z"/>
    <path class="st19" d="M76.94,1323.12c8.46-1.95,17.42-3.7,25.95-5.15,60.17-10.08,121.28-13.67,182.16-14.11,67.43,0,135.37,3.17,201.8,15.73,0,0,3.25.64,3.25.64l3.25.72v2c-67.56.38-140.91.25-208.19.91-67.22.06-140.73.94-208.18,1.27,0,0-.03-2-.03-2h0Z"/>
    <path class="st19" d="M543.72,1418.84c49.43-15.19,103.44-13.71,152.64,1.91,33.65,10.62,65.04,27.27,99.43,35.12,54.21,12.87,110.69,10.74,166.18,11.61,85.97,1.3,172.03,4.3,257.57,13.92,0,0,.02,2,.02,2l-85.81,1.21c-42.89.43-128.77,1.36-171.62,1.79-57.12.49-115.32,2.54-171.14-12.19-13.87-3.64-27.58-8.49-40.75-14.08-19.82-8.32-38.99-17.83-59.08-25.35-46.68-17.43-97.92-22.3-147.08-13.96,0,0-.35-1.97-.35-1.97h0Z"/>
    <path class="st19" d="M2197.81,1033.47c91.67-18.14,188.78-18.65,278.74,9.26,22.25,6.91,42.3,14.31,64.43,19.03,28.91,6.08,58.54,7.78,88.09,8.86,30.24.94,61.76,2.06,91.91,3.53,69.1,3.57,138.29,8.14,206.99,16.97,0,0-.03,2-.03,2-46.04-.31-138.18-1.18-184.17-1.79,0,0-92.08-1.06-92.08-1.06-45.91-.48-93.02-1.16-137.34-14.98-23.02-7.04-45.26-15.73-68.42-22.11-9.66-2.59-20.83-5.36-30.65-7.47-41.18-8.67-83.34-12.65-125.41-13.2-30.64-.61-61.31.68-91.89,2.94l-.16-1.99h0Z"/>
    <path class="st19" d="M1846.08,1195.86c27.24-9.89,55.03-18.58,84.32-20.37,10.18-.51,21.49-.35,31.6.76,3.18.38,7.35.75,10.44,1.22,2.6.42,7.73,1.26,10.32,1.71,15.01,2.78,30.35,6.86,44.97,11.23,31.03,9.3,62.21,21.01,93.85,27.2,36.53,7.17,78.94,7.45,116.42,10.03,79.61,4.85,159.68,9.26,239.25,18.11,0,0,.04,2,.04,2-79.97,2.07-160.01,1.46-239.96-1.21-39.99-1.76-80.36-1.49-119.75-9.63-26.22-5.55-51.44-14.72-76.56-23.77-31.14-11.26-62.81-22.32-95.93-25.6-19.76-1.77-39.82-.46-59.39,2.76-13.13,2.08-26.16,4.79-39.21,7.53l-.42-1.95h0Z"/>
    <path class="st19" d="M2181.04,1486.51c74.82-13.51,152.1,4.45,225.6,17.61,42.98,7.66,86.43,14.51,130.02,12.8,22.08-.67,43.9-4.41,66.06-6.26,38.12-3.54,76.88-3.37,114.8-.57,60.62,4.52,120.2,14.84,179.24,28.7,0,0-.23,1.99-.23,1.99-29.87-3.24-59.74-6.44-89.65-9.06-59.73-5.38-119.87-8.42-179.75-3.87-29.92,1.85-59.75,7.82-89.73,9.05-91.02,3.04-177.72-29.57-266.68-43.04-29.6-4.61-59.62-7.1-89.55-5.36l-.13-2h0Z"/>
    <path class="st19" d="M3000.04,1427.73v13.43c-58.09.26-141.09.72-188.86.64-10.33-.03-20.72-.01-31.13-.96-10.41-.89-20.82-2.94-30.65-6.54-9.86-3.53-19.19-8.19-28.43-12.79-27.2-14.54-57.23-23.59-88.19-24.04-10.26-.18-20.54.47-30.69,1.99l-.32-1.98c30.76-10.51,64.59-10.4,95.87-1.55,10.41,2.88,20.68,7.07,30.44,11.21,33.99,14.95,46.06,15.83,83.07,14.95,51.36-.71,103.67.17,154.93,3.24,11.32.71,22.64,1.49,33.96,2.4Z"/>
    <path class="st19" d="M2486.62,1234.98c98.15-30.89,217.91-5.05,318.24,6.73,15.06,2.02,30.42,3.65,45.51,5.82,0,0,.2,1.99.2,1.99-60.62,6.91-121.75.8-182.17-4.95-60.31-6.32-120.98-12.1-181.61-7.59,0,0-.18-1.99-.18-1.99h0Z"/>
    <path class="st19" d="M2019.02,1759.46c51.19-26.17,111.22-25.48,166.91-19.48,30.55,3.37,60.97,8.55,91.28,12.64,108.78,15.42,218.54,9.61,328.61,16.1,0,0,.15,1.99.15,1.99-24.51,2.05-49.03,4.08-73.57,5.85-76.72,5.22-154,7.76-230.59-.78-8.57-1.11-19.01-2.36-27.49-3.67-83.77-12.4-171.28-38.08-254.65-10.76,0,0-.65-1.89-.65-1.89h0Z"/>
    <path class="st19" d="M2315.41,1902.52c38.93-7.93,78.69-13.52,118.55-11.62,20.18.87,40.41,4.58,59.98,9.03,26.56,5.88,53.18,12.7,79.93,8.18,15.04-2.76,28.23-7.71,44.12-12.99,12.99-4.25,27.36-8.1,41.17-9.68,19.73-2.44,40.95-1.94,60.71-1.66,71.94,1.43,143.69,5.08,215.23,15.11,0,0-.01,2-.01,2-26.06-.02-52.13.04-78.19.19-52.11.12-104.25.53-156.35,1.36-19.45.38-38.9,1.32-57.75,6.14-25.22,6.4-49.38,18.26-75.76,19.89-6.56.48-13.26.38-19.8-.18-39.2-3.48-75.65-20.11-114.8-23.72-38.83-4.33-77.94-2.25-116.9-.05,0,0-.13-2-.13-2h0Z"/>
    <path class="st19" d="M3000.04,1642.17v17.67c-73.24.32-147.26.45-213.43.29-23.57-.19-47.34-1.12-70.46-6.25-22.32-4.9-43.4-13.8-65.93-17.53-7.86-1.26-15.94-1.7-23.86-1.03-2.15.2-4.32.62-6.46.9-2.56.53-4.05.98-6.34,1.49l-.56-1.92c15.41-7.2,33.15-7.7,49.81-5.61,24.45,3.02,48.19,10.67,72.84,11.99,16.97,1.16,34,.79,51.06.23,70.83-2.73,142.32-2.93,213.33-.23Z"/>
    <path class="st19" d="M1840.78,1524.52c49.64-.94,100.78-2,150.33-.55,81.26,3,162.19,12.24,242.63,23.49,0,0,3.15.48,3.15.48,0,0,3.16.55,3.16.55l.11,2c-99.72,5.93-200.82-4.59-300.29-11.25-33.33-2.56-66.67-6.1-99.46-12.76,0,0,.38-1.96.38-1.96h0Z"/>
    <path class="st19" d="M709.39,1659.16c24.94-3.24,49.84-6.99,74.5-11.73,14.42-2.6,30.07-6.27,44.58-8.72,20.41-3.51,41.67-3.57,62.15-4.05,60.3-1.01,121.33.42,181.49,4.83,40.31,3.08,80.61,7.18,120.87,14.67l-.02,2-60.51-.19c-37.92-.31-142.17-1.18-181.53-1.51-35.54.16-85.93-2.92-120.77.2-9.98,1.02-19.97,2.49-30.02,3.59-30.13,3.44-60.54,4.67-90.83,2.92,0,0,.1-2,.1-2h0Z"/>
    <path class="st19" d="M1751.37,1852.47c-34.49-4.05-66.87,10.6-98.04,23.44-13.06,5.39-26.51,10.69-40.16,14.73-34.36,10.25-70.69,13.97-106.33,15.18-139.15,1.67-278.95-2.89-417.07-20.7,0,0,.02-2,.02-2l83.37.51c52.25.51,195.86,1.95,250.1,2.49,54.7.42,112.09,3.54,166.06-5.81,41.38-6.32,79.17-26.49,120.75-31.97,13.91-1.72,28.19-1.36,41.8,2.19,0,0-.49,1.94-.49,1.94h0Z"/>
    <path class="st19" d="M479.26,1945.5v2c-110.12.47-250.41.01-360.98-.93-29.23-.15-87.67-.72-118.24-1.16v-2.36c79.21-12.91,158.78-15.59,238.65-15.61,80.56.8,160.78,4.24,240.57,18.06Z"/>
    <path class="st19" d="M660.54,1793.61c82.73,4.37,159.07-31.22,240.21-41.1,27.58-3.45,55.65-4.15,83.3-4.13,81.68.74,163.42,3.87,244.81,10.87,27.18,2.57,54.35,5.04,81.52,9.04l-.02,2c-90.89-.14-234.38-1.36-326.36-1.92-27.16-.13-54.33.28-81.3,3-54.11,5.45-106.72,21.02-160.9,26.68-27.14,2.72-54.76,2.74-81.62-2.48,0,0,.37-1.97.37-1.97h0Z"/>
    <path class="st19" d="M288.88,1586.38l-.23,1.99c-4.73-.49-9.47-.93-14.21-1.32-33.65-2.79-67.5-3.05-101.18-.8-14.13.94-28.23,2.33-42.27,4.16-20.83,2.7-41.53,6.37-62.02,11.01-22.37,5.01-45.89,9.88-68.93,8.41v-16.27c30.39-.69,59.33-11.25,89.28-16.69,14.5-2.68,29.14-4.72,43.85-6.05,13.97-1.28,27.99-1.92,42.01-1.87,33.38.13,66.68,4.17,98.93,12.86.92.25,1.84.5,2.75.75l6.03,1.87,3,.94,2.99,1.01Z"/>
  </g>
  <g id="Layer_7">
    <polygon class="st16" points="1468.48 707.87 2259.7 340.43 2773.87 1439.61 1983.43 1807.43 1468.48 707.87"/>
    <rect class="st18" x="530.91" y="1029.52" width="1048.7" height="713.74" rx="51.65" ry="51.65" transform="translate(230.45 -148.32) rotate(9.02)"/>
    <circle class="st4" cx="1540.41" cy="1465" r="21.13"/>
  </g>
  <g id="Layer_8">
    <path class="st9" d="M1683.48,870.35c-.08,0-.16,0-.24,0-1.65-.13-2.89-1.57-2.76-3.23,1.05-13.4,6.4-26.45,15.06-36.74,7.26-8.62,15.88-12.65,23.67-11.05,2.43.5,4.57,1.49,6.64,2.45,1.22.57,2.38,1.1,3.54,1.51,6.57,2.32,14.79.92,22.53-3.83,5.92-3.63,10.86-8.53,16.09-13.71,1.05-1.04,2.11-2.09,3.17-3.12,10.19-9.91,21.34-18.94,33.15-26.85,6.96-4.66,15.25-9.17,23.93-7.32,3.54.75,6.56,2.46,9.47,4.1,2.12,1.19,4.11,2.32,6.2,3.03,12.13,4.13,24.84-6.02,33.37-15.27l1.53-1.66c9.39-10.23,20.03-21.82,34.64-22.35,4.13-.15,8.08.65,11.91,1.42,3.13.63,6.09,1.23,9.06,1.32,14.52.38,26.73-11.35,35.77-21.65l2.02-2.31c9.87-11.32,20.08-23.02,34.87-26.64,5-1.22,10.09-1.36,15.01-1.49,5.13-.14,9.97-.27,14.58-1.54,12.28-3.4,20.28-13.85,28.75-24.92,6-7.85,12.21-15.96,20.26-21.78,8.59-6.22,18.73-9.41,28.54-12.5,1.2-.38,2.4-.76,3.59-1.14,25.47-8.15,50.05-19.21,73.05-32.86,1.42-.85,3.27-.38,4.11,1.05s.38,3.27-1.05,4.11c-23.39,13.88-48.39,25.12-74.29,33.41-1.2.39-2.41.77-3.62,1.15-9.35,2.94-19.03,5.99-26.83,11.63-7.33,5.3-13.27,13.06-19.01,20.56-8.7,11.36-17.69,23.12-31.92,27.05-5.31,1.47-10.75,1.62-16.02,1.76-4.82.13-9.38.25-13.75,1.32-12.94,3.17-22.51,14.14-31.77,24.75l-2.03,2.32c-9.91,11.29-23.46,24.19-40.45,23.69-3.47-.1-6.83-.78-10.07-1.43-3.64-.74-7.08-1.43-10.5-1.31-12.1.44-21.42,10.59-30.44,20.42l-1.54,1.67c-13.96,15.14-27.7,20.98-39.71,16.89-2.61-.89-4.95-2.21-7.21-3.49-2.64-1.49-5.13-2.9-7.78-3.46-6.5-1.39-13.42,2.48-19.34,6.44-11.51,7.71-22.37,16.51-32.3,26.16-1.05,1.02-2.09,2.05-3.13,3.08-5.24,5.19-10.66,10.56-17.18,14.56-9.3,5.7-19.38,7.3-27.67,4.38-1.43-.5-2.77-1.13-4.07-1.73-1.84-.85-3.57-1.66-5.32-2.02-7.9-1.62-15.13,5.78-17.87,9.03-7.86,9.34-12.71,21.18-13.67,33.34-.12,1.57-1.44,2.76-2.99,2.76Z"/>
    <path class="st9" d="M1742.17,976c-1.56,0-2.88-1.21-2.99-2.79-.75-10.47,3.65-21.05,12.07-29.03,8.42-7.98,19.22-11.81,29.63-10.5,2.94.37,5.78,1.08,8.53,1.77,3.02.76,5.87,1.48,8.76,1.74,9.78.89,20.4-3.37,31.55-12.67,3.6-3,7.09-6.32,10.47-9.54,5.54-5.27,11.27-10.72,17.82-15.13,15.81-10.65,34.73-14.25,53.03-17.73,8.94-1.7,18.18-3.46,26.87-6.02,28.37-8.35,53.53-26.15,70.85-50.11.64-.88,1.27-1.78,1.91-2.68,5.02-7.09,10.2-14.41,18.55-17.83,5.76-2.36,12.02-2.31,17.54-2.28l28.76.19c5.6.04,11.95.08,17-2.51,5.19-2.66,8.65-7.76,12.3-13.16,1.5-2.22,3.06-4.52,4.76-6.66,13.5-17,37.01-25.53,71.86-26.09,3.86-.06,7.81-.07,11.63-.08,21.37-.04,43.46-.07,62.07-9.64,1.48-.76,3.28-.18,4.04,1.3.76,1.47.18,3.28-1.3,4.04-19.9,10.22-42.73,10.26-64.8,10.3-3.8,0-7.73.01-11.55.07-32.95.53-54.95,8.32-67.26,23.82-1.56,1.96-2.98,4.07-4.49,6.29-3.92,5.79-7.97,11.77-14.53,15.13-6.35,3.26-13.8,3.21-19.77,3.17l-28.76-.19c-5.2-.04-10.58-.07-15.23,1.83-6.73,2.75-11.41,9.35-15.93,15.74-.65.92-1.3,1.83-1.95,2.73-18.1,25.04-44.38,43.63-74.02,52.36-8.97,2.64-18.36,4.43-27.44,6.16-18.52,3.53-36,6.85-50.8,16.81-6.13,4.12-11.42,9.16-17.03,14.5-3.45,3.28-7.02,6.68-10.77,9.8-12.42,10.36-24.52,15.08-35.94,14.03-3.36-.31-6.57-1.12-9.68-1.9-2.69-.68-5.23-1.32-7.81-1.64-8.49-1.06-17.75,2.26-24.76,8.9s-10.82,15.7-10.21,24.25c.12,1.65-1.13,3.09-2.78,3.21-.07,0-.15,0-.22,0Z"/>
    <path class="st9" d="M1810.78,1090.06c-2.13,0-4.24-.22-6.3-.65-1.62-.34-2.66-1.93-2.32-3.55.34-1.62,1.93-2.66,3.55-2.32,14.07,2.95,27.89-7.13,37.01-16.12,2.21-2.18,4.43-4.49,6.58-6.74,8.42-8.78,17.12-17.87,28.74-22.52,6.96-2.79,14.36-3.71,21.51-4.6,5.21-.65,10.6-1.32,15.6-2.71,15.98-4.46,28.43-15.88,41.61-27.96,13.66-12.53,27.79-25.49,46.15-29.73,5.24-1.21,10.59-1.64,15.77-2.05,2.81-.22,5.72-.45,8.53-.81,19.59-2.47,38.08-11.51,52.07-25.43,3.7-3.68,7.18-7.8,10.55-11.78,5.45-6.44,11.08-13.11,17.99-18.42,18-13.84,41.16-16.44,63.56-18.96,1.49-.17,2.98-.33,4.46-.51,22.32-2.57,47.08-7.49,61.44-24.51,1.85-2.19,3.49-4.54,5.23-7.02,2.46-3.51,5-7.15,8.19-10.31,5.9-5.85,13.46-9.55,20.7-12.84,17.45-7.92,35.57-14.84,53.87-20.55,1.58-.5,3.26.39,3.76,1.97.49,1.58-.39,3.26-1.97,3.76-18.06,5.65-35.95,12.47-53.18,20.29-7.02,3.19-13.76,6.48-18.96,11.63-2.81,2.78-5.09,6.04-7.5,9.49-1.74,2.48-3.53,5.04-5.56,7.44-15.71,18.63-41.85,23.9-65.34,26.6-1.48.17-2.98.34-4.47.51-21.58,2.43-43.89,4.94-60.57,17.76-6.4,4.92-11.58,11.05-17.07,17.54-3.45,4.08-7.01,8.3-10.9,12.16-14.93,14.86-34.66,24.49-55.55,27.13-2.95.37-5.92.61-8.81.84-5.18.41-10.08.8-14.89,1.91-16.81,3.89-29.75,15.75-43.44,28.31-13.12,12.03-26.69,24.47-44.05,29.32-5.44,1.52-11.05,2.21-16.48,2.89-7.09.88-13.78,1.71-20.02,4.21-10.42,4.17-18.66,12.78-26.64,21.1-2.18,2.27-4.43,4.62-6.7,6.86-12.3,12.11-24.66,18.36-36.15,18.36Z"/>
    <path class="st9" d="M1864.38,1185.69c-1.47,0-2.75-1.08-2.96-2.57-.24-1.64.9-3.16,2.54-3.4,8.82-1.28,14.74-8.75,21-16.66,4.71-5.95,9.59-12.11,16.08-16.13,6.65-4.12,14.49-5.53,20.58-6.3,9.26-1.18,18.67-1.39,27.78-1.59,7.41-.17,15.07-.34,22.52-1.03,19.45-1.82,34.37-7.48,44.33-16.83.81-.76,1.6-1.55,2.38-2.34,2.74-2.75,5.57-5.58,9.34-7.36.95-.45,1.9-.8,2.82-1.14,1.48-.55,2.87-1.06,3.86-1.86,1.35-1.08,2.26-2.89,3.22-4.8.36-.71.72-1.42,1.1-2.11,3.93-7.08,10.26-11.82,17.53-16.86,12.26-8.5,25.44-17.33,40.02-23.57,7.16-3.07,14.66-5.51,21.92-7.87,11.92-3.88,23.18-7.54,33.38-13.81,3.71-2.28,7.41-4.99,11-7.6,9.56-6.99,19.44-14.21,31.62-15.24,1.65-.15,3.1,1.09,3.24,2.74.14,1.65-1.09,3.1-2.74,3.24-10.5.88-19.28,7.3-28.58,14.1-3.68,2.69-7.48,5.47-11.4,7.87-10.81,6.64-22.94,10.58-34.66,14.4-7.13,2.32-14.5,4.72-21.41,7.68-14.06,6.03-26.96,14.66-38.96,22.99-6.64,4.6-12.4,8.9-15.7,14.84-.34.62-.66,1.25-.98,1.89-1.15,2.3-2.46,4.9-4.83,6.79-1.75,1.4-3.76,2.15-5.53,2.8-.84.31-1.63.6-2.34.94-2.83,1.33-5.17,3.68-7.66,6.17-.84.84-1.67,1.67-2.53,2.48-10.96,10.28-27.07,16.48-47.88,18.42-7.66.72-15.43.89-22.94,1.06-8.95.2-18.21.41-27.16,1.54-5.49.7-12.51,1.95-18.18,5.45-5.6,3.47-10.14,9.2-14.54,14.75-6.71,8.48-13.65,17.25-24.84,18.87-.15.02-.29.03-.44.03Z"/>
    <path class="st9" d="M1901.43,1278.56c-1.47,0-2.75-1.08-2.96-2.57-.24-1.64.9-3.16,2.54-3.4,8.82-1.28,14.74-8.75,21-16.66,4.71-5.95,9.59-12.11,16.08-16.13,6.65-4.12,14.49-5.53,20.58-6.3,9.26-1.18,18.67-1.39,27.78-1.59,7.41-.17,15.07-.34,22.52-1.03,19.45-1.82,34.37-7.48,44.33-16.83.81-.76,1.6-1.55,2.38-2.34,2.74-2.75,5.57-5.58,9.34-7.36.95-.45,1.9-.8,2.82-1.14,1.48-.55,2.87-1.06,3.86-1.86,1.35-1.08,2.26-2.89,3.22-4.8.36-.71.72-1.42,1.1-2.11,3.93-7.08,10.26-11.82,17.53-16.86,12.26-8.5,25.44-17.33,40.02-23.57,7.16-3.07,14.66-5.51,21.92-7.87,11.92-3.88,23.18-7.54,33.38-13.81,3.71-2.28,7.41-4.99,11-7.6,9.56-6.99,19.44-14.21,31.62-15.24,1.65-.15,3.1,1.09,3.24,2.74.14,1.65-1.09,3.1-2.74,3.24-10.5.88-19.28,7.3-28.58,14.1-3.68,2.69-7.48,5.47-11.4,7.87-10.81,6.64-22.94,10.58-34.66,14.4-7.13,2.32-14.5,4.72-21.41,7.68-14.06,6.03-26.96,14.66-38.96,22.99-6.64,4.6-12.4,8.9-15.7,14.84-.34.62-.66,1.25-.98,1.89-1.15,2.3-2.46,4.9-4.83,6.79-1.75,1.4-3.76,2.15-5.53,2.8-.84.31-1.63.6-2.34.94-2.83,1.33-5.17,3.68-7.66,6.17-.84.84-1.67,1.67-2.53,2.48-10.96,10.28-27.07,16.48-47.88,18.42-7.66.72-15.43.89-22.94,1.06-8.95.2-18.21.41-27.16,1.54-5.49.7-12.51,1.95-18.18,5.45-5.6,3.47-10.14,9.2-14.54,14.75-6.71,8.48-13.65,17.25-24.84,18.87-.15.02-.29.03-.44.03Z"/>
    <path class="st22" d="M2288.59,1217.79h0c-.68,6.96-1.92,14.71-4.11,22.77-1.89,6.97-4.03,12.9-6.31,17.87-2.35,5.11-4.86,9.2-7.44,12.39-4.97,6.14-10.18,8.87-14.95,8.87-5.53,0-10.51-3.38-13.75-6.27-2.19-1.96-4.01-4.3-5.45-6.86-4-7.14-14.83-26.67-24.49-45.69-7.95-15.66-15.1-30.98-16.96-38.74-1.9-7.93-1.23-16.12.23-23.06,2.16-10.17,6.03-17.64,6.03-17.64l28.26-39.23,5-6.94,9.78,16.95,22.42,38.84v.02s21.54,37.32,21.54,37.32c0,0,1.85,12.27.2,29.4Z"/>
    <path class="st2" d="M2288.59,1217.79h0c-.68,6.96-1.92,14.71-4.11,22.77-1.89,6.97-4.03,12.9-6.31,17.87-9.74-24.04-37.73-90.68-52.13-99-13.32-7.7-25.53-3.07-30.68-.36,2.16-10.17,6.03-17.64,6.03-17.64l28.26-39.23,14.78,10.01,12.53,8.48,9.89,30.36v.02s21.74,66.72,21.74,66.72Z"/>
    <path class="st0" d="M2270.73,1270.82c-4.97,6.14-10.18,8.87-14.95,8.87-5.53,0-10.51-3.38-13.75-6.27-2.19-1.96-4.01-4.3-5.45-6.86-4-7.14-14.83-26.67-24.49-45.69,7.36-5.41,19.05-10.32,30.39.39,12.48,11.78,22.83,35.41,28.25,49.56Z"/>
    <rect class="st13" x="553.56" y="1051.54" width="965.74" height="657.39" rx="43.04" ry="43.04" transform="translate(229.25 -145.44) rotate(9.02)"/>
  </g>
  <g id="Layer_2">
    <path class="st7" d="M2288.82,1069.63l-120.31,91.17-34.81,7.31-26.81,5.63c-1.86.39-3.34-1.54-2.47-3.24l11.76-22.98,14.84-28.99,79.77-69.95c32.26,17.68,78.03,21.04,78.03,21.04Z"/>
    <path class="st14" d="M2133.71,1168.11l-26.81,5.63c-1.86.39-3.34-1.54-2.47-3.24l11.76-22.98c4.47,2.59,11.29,8.27,17.52,20.58Z"/>
    <path class="st15" d="M630.66,1163.42l265.77,47.15c-12.76,61.29-67.09,107.35-132.17,107.35-74.55,0-135-60.45-135-135,0-6.62.48-13.13,1.4-19.5Z"/>
    <path class="st11" d="M786.55,1049.75l-23.04,124.52-130.48-23.15c14.29-59.21,67.63-103.2,131.23-103.2,7.59,0,15.04.63,22.29,1.83Z"/>
    <path class="st19" d="M899.26,1182.92c0,5.17-.29,10.27-.86,15.28l-122.57-21.74,22.96-124.08c57.83,15.25,100.47,67.92,100.47,130.54Z"/>
    <rect class="st24" x="955.87" y="1089.78" width="345.13" height="216" rx="12" ry="12" transform="translate(192.44 -155.72) rotate(8.63)"/>
    <rect class="st5" x="1126.09" y="1230.65" width="345.13" height="216" rx="12" ry="12" transform="translate(215.5 -179.66) rotate(8.63)"/>
    <rect class="st24" x="866.65" y="1440.78" width="345.13" height="216" rx="12" ry="12" transform="translate(244.09 -138.36) rotate(8.63)"/>
    <rect class="st11" x="701.74" y="1362.65" width="294.48" height="100.29" rx="12" ry="12" transform="translate(221.53 -111.37) rotate(8.63)"/>
  </g>
  <g id="Layer_3">
    <path class="st22" d="M2553.96,1395.78l-131.09,96.26-39.26-11.22s-54.78-71.47-72-116.34c-17.22-44.87-18.65-99.79-36.65-135.39-18-35.61-70.44-126-70.44-126,0,0-3.95-8.84-7.02-19-.91-3.01-1.74-6.14-2.37-9.18l-6.06,4.75-8.42,6.6s-15.11,1.93-20.82-10.88c-2.01-4.49-2.85-10.8-1.48-19.64,0,0,13.75-27.22,26.73-50.92,6.57-11.99,12.93-23.08,17.23-29.3,12.78-18.52,34.43-21.91,34.43-21.91,0,0,73.83-19.18,99.65-18.79,25.83.4,81,63,81,63,0,0,84.92,94.31,99.79,153.79,14.86,59.48,36.78,244.17,36.78,244.17Z"/>
    <path class="st2" d="M2326.8,1133.41c-.55,0-1.1-.1-1.64-.31-2.31-.91-3.46-3.52-2.55-5.83l14.48-36.98c.91-2.31,3.52-3.46,5.83-2.55,2.31.91,3.46,3.52,2.55,5.83l-14.48,36.98c-.7,1.78-2.39,2.86-4.19,2.86Z"/>
    <path class="st23" d="M3000.04,302.54v48.41c-2.01,30.96-7.85,60.88-17.06,89.29-1.51,4.68-3.12,9.32-4.82,13.91-51.83,140.35-186.81,240.42-345.16,240.42-99.65,0-190.05-39.63-256.29-104-7.81-7.58-15.29-15.51-22.39-23.76-3.35-3.88-6.62-7.83-9.8-11.85-44.34-55.97-72.74-125.13-78.33-200.65h0c-.68-9.11-1.02-18.3-1.02-27.57,0-43.1,7.41-84.48,21.04-122.91.67-1.9,1.36-3.8,2.07-5.69,9.77-26.18,22.44-50.95,37.61-73.92,2.92-4.42,5.94-8.77,9.05-13.06,33.6-46.38,77.77-84.62,128.97-111.16h338.18c15.96,8.27,31.24,17.68,45.72,28.13,1.53,1.09,3.04,2.2,4.55,3.32,9.32,6.93,18.3,14.3,26.91,22.07,69.04,62.27,114.37,150.34,120.77,249.02Z"/>
  </g>
  <g id="Layer_4">
    <path class="st15" d="M2996.42,2000h-525.73l-19.1-92.7-3.15-15.31-1.66-8.05-2.34-11.37-18.81-91.32-3.65-17.73-30.1-146.16-21.22-103.05-3.59-17.46-1.72-8.33s5.34-4.47,15.16-11.81c27.85-20.82,91.72-64.7,171.76-94.89,12.95-4.89,26.33-9.42,40.04-13.43l17.1,26.72,2.04,3.2,57.63,90.06,12.74,19.92,11.1,17.36,6.54,10.22,9.47,14.79,59,92.21,10.98,17.17,62.14,97.12,4.47,6.99,85.88,134.23,1.61,2.51,63.41,99.11Z"/>
    <path class="st0" d="M2229.7,1106.74s32.35-16.7,40.7-29.22c0,0-21.67-46.94-52.19-38.81-4.7,1.25-8.38,4.86-9.86,9.49-3.57,11.15-6.26,34.71,21.36,58.54Z"/>
    <path class="st0" d="M2191.09,1037.09c-6.28,19.76-26.86,35.17-31.26,38.29-2.01-4.49-2.85-10.8-1.48-19.64,0,0,13.75-27.22,26.73-50.92,4.22,5.02,11.09,16.27,6.01,32.27Z"/>
    <path class="st12" d="M2572.5,805.3l37.71-26.43s26.8,1.95,29.82,36.89l-38.3,30.32-29.23-40.78Z"/>
    <path class="st12" d="M2481.68,973.46c-1.62.85-3.53.92-5.22.2l-32.32-13.86c-3.09-1.32-4.51-4.9-3.19-7.98,1.32-3.09,4.9-4.51,7.98-3.19l29.53,12.66c13.86-8.02,79-46.44,99.21-71.64l-10.47-24.2c-1.33-3.08.1-6.66,3.17-7.99,3.08-1.33,6.66.09,7.99,3.17l11.87,27.44c.84,1.93.61,4.16-.59,5.89-20.99,30.11-104.25,77.42-107.78,79.42-.06.03-.11.06-.17.09Z"/>
    <path class="st7" d="M2566.68,798.72c-3.6-1.13-7.51-.54-10.62,1.58l-325.18,222.1c5.11.98,9.63,3.36,13.29,6.69,4.74.89,8.97,2.97,12.49,5.9,5.56,1.46,10.34,4.6,13.97,8.81,4.92,3.55,8.63,8.68,10.64,14.59,1.02,2.55,1.72,5.26,2.04,8.08,5.8,1.34,9.26,1.91,9.26,1.91l308.02-211.15c3.14-2.15,4.95-5.77,4.78-9.57-1.51-33.41-26.81-45.22-38.69-48.94Z"/>
    <path class="st6" d="M2927.27,329.47c0,36.84-7.04,72.08-19.87,104.49-2.27,5.74-4.72,11.38-7.35,16.93-22.39,47.33-57.47,87.74-100.96,117.08-5.13,3.46-10.36,6.77-15.71,9.91h0c-44.5,26.13-96.61,41.16-152.31,41.16-49.51,0-96.18-11.87-137.19-32.86-11.53-5.9-22.61-12.52-33.18-19.81h-.01c-76.11-52.4-125.84-138.97-125.84-236.9,0-70.28,25.62-134.71,68.21-184.86,4.37-5.14,8.92-10.14,13.64-14.97,53.94-55.28,130.04-89.73,214.37-89.73,13.57,0,26.94.89,40.03,2.63h.01c5.48.72,10.9,1.59,16.28,2.61,22.03,4.15,43.2,10.69,63.2,19.32l9.24-18.69,2.35-4.76,8.37-16.94h.01l11.89-24.08h64.11c1.5,2.25,2.89,4.76,4.16,7.55,1.71,3.75,1.81,8.05.36,11.91l-3.26,8.67-1.03,2.74-7.26,19.33-10.51,27.99-10.25,27.28c21.86,17.52,41.11,38.04,57.09,60.92,1.31,1.87,2.59,3.75,3.85,5.65,30.09,45.32,47.57,99.38,47.57,157.43Z"/>
    <path class="st10" d="M2829.01,78.19l-10.25,27.28c-18.12-20.53-68.18-41-68.18-41l9.24-18.69c42.74,7.25,61.23,21.88,69.19,32.41Z"/>
    <path class="st28" d="M2901.45,331.04c0,145.66-121.67,263.74-271.76,263.74-138.5,0-252.8-100.55-269.63-230.53-1.4-10.88-2.13-21.96-2.13-33.21,0-145.66,121.67-263.74,271.76-263.74,84.5,0,159.99,37.42,209.82,96.13,38.7,45.57,61.94,103.95,61.94,167.61Z"/>
    <path class="st1" d="M2901.45,331.04c0,145.66-121.67,263.74-271.76,263.74-138.5,0-252.8-100.55-269.63-230.53,45.22,24.84,177.29,86.65,327.74,57.57,128-24.74,150.29-169.96,151.71-258.39,38.7,45.57,61.94,103.95,61.94,167.61Z"/>
    <rect class="st29" x="1250.45" y="462.56" width="123.65" height="7"/>
    <rect class="st29" x="1261.41" y="642.56" width="98.61" height="7"/>
    <rect class="st29" x="1141.67" y="335.78" width="93.91" height="7"/>
    <rect class="st29" x="447.5" y="712.22" width="93.91" height="7"/>
    <rect class="st29" x="808.28" y="699.7" width="83.48" height="7"/>
    <path class="st26" d="M1541.16,551.93c-.04,1.49-.1,3.01-.19,4.55-.13,2.3-.33,4.63-.62,7-.03.25-.06.51-.1.76-1.32,10.56-4.26,21.68-9.82,32.29-3.39,6.49-7.77,12.79-13.37,18.64-2.3,2.41-4.81,4.75-7.54,7-6.03,4.95-13.16,9.46-21.54,13.33l-783.96,164.37-27.22,5.71L47.08,937.61l-33.39,7-13.65,2.86V0h954.87c1.02-.61,2.15-1.09,3.36-1.42,1.99-.53,4.14-1.09,6.42-1.66.83.95,1.61,1.92,2.34,2.87.05.07.11.14.16.21h242.89l49.73,78.14,10.29,16.17,49.37,77.56,3.59,5.64,40.46,63.57,4.46,7,38.67,60.76,9.94,15.61,119.52,187.79s5.54,17.33,5.05,39.69Z"/>
    <path class="st25" d="M1440.75,553.75c-4.36,8.88-10.84,17.19-20.31,23.86-7.35,5.19-15.78,8.65-24.59,10.47l-344.55,71.2-26.04,5.38-169.51,35.03h-.05s-33.82,7-33.82,7h-.05S.04,876.53.04,876.53V38.01L303.55,0h651.36c1.02-.61,2.15-1.09,3.36-1.42,1.99-.53,4.14-1.09,6.42-1.66.83.95,1.61,1.92,2.34,2.87.05.07.11.14.16.21h173.7l48.91,77.89,8.15,12.98,48.43,77.13,6.7,10.67,93.08,148.25,8.25,13.14,52.35,83.37,4.4,7,27.18,43.29c5.64,8.98,9.13,19.14,10.08,29.69,1.25,13.81.77,33.15-7.67,50.34Z"/>
    <path class="st5" d="M1196.46,300.93C1158.65,320.39,422.99,442.53.04,511.64V101.72l75.01-9.51h.01l59.95-7.6h.07L802.14,0h152.77c1.02-.61,2.15-1.09,3.36-1.42,1.99-.53,4.14-1.09,6.42-1.66.83.95,1.61,1.92,2.34,2.87.05.07.11.14.16.21h111.78c11.63,16.47,30.29,45.64,50.49,78.06,1.83,2.95,3.68,5.92,5.54,8.91,16.36,26.36,33.39,54.24,48.29,78.8,2.88,4.76,5.69,9.39,8.39,13.86,20.55,33.97,35.3,58.69,35.3,58.69,0,0,22.69,35.22-30.52,62.61Z"/>
    <path class="st5" d="M64.69,650.38l18.51,99.94c6.22,33.62,38.87,55.56,72.35,48.62l608.76-126.18c33.62-6.97,54.1-39.84,47.38-72.06-.77-3.68-1.89-7.35-3.39-10.98l-31.83-76.96c-10.91-26.38-38.66-41.67-66.78-36.79l-578.25,100.23-17.19,2.98c-33.46,5.8-55.74,37.81-49.56,71.2Z"/>
    <polygon class="st3" points="78.89 343.98 103.94 459.02 736.28 333.02 722.67 293.57 697.94 221.89 126.23 334.64 78.89 343.98"/>
    <path class="st3" d="M1042.28,46.01c-15.37,5.62-41.49,14.1-64.23,16.24-5.89.56-11.44-2.82-13.64-8.31l-15.03-37.56c-2.49-6.23.07-13.13,5.53-16.38,1.02-.61,2.15-1.09,3.36-1.42,1.99-.53,4.14-1.09,6.42-1.66.83.95,1.61,1.92,2.34,2.87.05.07.11.14.16.21h70.06l11.99,26.72.6,1.34c3.17,7.04-.3,15.3-7.56,17.95Z"/>
    <path class="st3" d="M992.69,90.47l15.02,37.56c2.2,5.49,7.76,8.86,13.65,8.31,22.74-2.15,48.85-10.62,64.23-16.24,5.64-2.06,8.99-7.51,8.71-13.15-.07-1.61-.44-3.24-1.15-4.81l-14.06-31.31c-2.05-4.58-6.5-7.62-11.51-7.85-21.71-1.03-49.45,5.24-66,9.69-.22.06-.43.12-.64.19-7.29,2.34-11.13,10.42-8.25,17.61Z"/>
    <path class="st3" d="M855.47,121.77l15.02,37.56c2.2,5.49,7.76,8.87,13.65,8.31,22.74-2.14,48.85-10.62,64.23-16.24,7.26-2.65,10.73-10.91,7.56-17.95l-2.29-5.11-11.77-26.21c-2.05-4.57-6.5-7.61-11.51-7.85-21.71-1.02-49.45,5.24-66,9.69-.59.16-1.15.35-1.7.58-6.59,2.76-9.92,10.39-7.19,17.22Z"/>
    <path class="st3" d="M713.04,153.6l15.02,37.56c2.2,5.49,7.75,8.86,13.65,8.31,22.74-2.15,48.85-10.62,64.23-16.24,7.25-2.65,10.72-10.91,7.56-17.96l-1.05-2.34-13.01-28.97c-2.06-4.58-6.5-7.62-11.51-7.85-20.07-.95-45.26,4.33-62.03,8.65-1.38.35-2.71.7-3.97,1.04-7.7,2.06-11.85,10.4-8.89,17.8Z"/>
    <path class="st3" d="M594.08,169.25l15.02,37.56c2.2,5.49,7.76,8.87,13.65,8.31,22.74-2.14,48.85-10.62,64.23-16.24,7.25-2.65,10.72-10.91,7.56-17.96l-.76-1.7-13.3-29.61c-2.05-4.58-6.5-7.61-11.51-7.85-21.35-1.01-48.54,5.04-65.17,9.47-.28.07-.56.15-.83.22-7.7,2.07-11.85,10.4-8.89,17.8Z"/>
    <path class="st3" d="M462.08,190.12l15.02,37.56c2.2,5.49,7.76,8.87,13.65,8.31,22.74-2.14,48.85-10.62,64.23-16.24,7.25-2.65,10.72-10.91,7.56-17.96l-.62-1.38-13.44-29.93c-2.05-4.58-6.5-7.62-11.51-7.85-21.71-1.03-49.45,5.24-66,9.69-.57.15-1.11.34-1.64.56-6.63,2.73-9.99,10.38-7.25,17.24Z"/>
    <path class="st3" d="M822.99,38.29l15.03,37.56c2.19,5.5,7.75,8.87,13.64,8.31,22.74-2.14,48.85-10.62,64.23-16.24,6.84-2.5,10.32-9.97,8.04-16.72-.14-.41-.3-.82-.48-1.23l-14.06-31.32c-2.05-4.57-6.5-7.61-11.51-7.85-21.71-1.02-49.44,5.24-66,9.69-1.03.28-2,.66-2.89,1.15-5.79,3.13-8.56,10.24-6,16.65Z"/>
    <path class="st3" d="M554.17,78.2l15.02,37.56c2.2,5.5,7.75,8.87,13.65,8.32,22.74-2.15,48.85-10.62,64.23-16.24,6.68-2.45,10.15-9.64,8.18-16.26-.16-.57-.37-1.14-.62-1.7l-14.06-31.31c-2.06-4.58-6.5-7.62-11.51-7.85-21.72-1.03-49.45,5.24-66,9.68-1.91.51-3.6,1.41-5.01,2.58-4.31,3.56-6.11,9.65-3.88,15.22Z"/>
    <path class="st3" d="M427.9,95.42l15.03,37.56c2.2,5.5,7.75,8.87,13.65,8.32,22.74-2.15,48.85-10.62,64.22-16.25.23-.09.46-.18.69-.29.76-.31,1.47-.69,2.13-1.14.01-.01.02-.02.03-.02,5.26-3.52,7.43-10.45,4.72-16.5l-1.59-3.55-12.47-27.77c-2.06-4.57-6.5-7.61-11.51-7.85-21.72-1.02-49.45,5.24-66.01,9.69-.06.02-.11.03-.17.05-7.58,2.14-11.66,10.4-8.72,17.75Z"/>
    <path class="st3" d="M311.04,114.2l15.02,37.56c2.2,5.5,7.75,8.87,13.65,8.32,22.74-2.15,48.85-10.62,64.23-16.24,7.25-2.66,10.72-10.91,7.56-17.96l-.75-1.68-13.31-29.63c-2.06-4.58-6.5-7.62-11.51-7.85-21.72-1.03-49.45,5.24-66,9.68-1.98.53-3.73,1.48-5.18,2.72-4.19,3.58-5.91,9.59-3.71,15.08Z"/>
    <path class="st3" d="M199.38,128.81l15.03,37.56c2.2,5.5,7.75,8.87,13.64,8.32,22.74-2.15,48.86-10.62,64.23-16.24,7.23-2.65,10.7-10.84,7.6-17.87-.01-.03-.03-.06-.04-.09l-14.05-31.31c-2.06-4.58-6.51-7.62-11.52-7.86-21.71-1.02-49.44,5.25-66,9.69-2.78.75-5.1,2.31-6.79,4.36-2.98,3.61-3.99,8.71-2.1,13.44Z"/>
    <path class="st3" d="M336.08,215.94l15.02,37.56c2.2,5.5,7.76,8.87,13.65,8.32,22.74-2.15,48.85-10.62,64.23-16.24,7.25-2.66,10.72-10.91,7.56-17.96l-.48-1.06-13.58-30.25c-2.05-4.58-6.5-7.62-11.51-7.86-20.22-.95-45.68,4.43-62.45,8.76-1.23.31-2.42.63-3.55.93-7.7,2.07-11.85,10.4-8.89,17.8Z"/>
    <path class="st3" d="M227.04,238.38l15.02,37.56c2.2,5.49,7.75,8.87,13.65,8.31,22.74-2.14,48.85-10.62,64.23-16.24,7.25-2.65,10.72-10.91,7.56-17.95l-.15-.33-13.91-30.99c-2.06-4.57-6.5-7.61-11.51-7.85-21.72-1.03-49.45,5.24-66,9.69-.84.22-1.63.52-2.38.89-6.14,2.98-9.15,10.31-6.51,16.91Z"/>
    <path class="st3" d="M113.82,257.68l15.02,37.56c2.2,5.5,7.76,8.87,13.65,8.32,22.74-2.15,48.85-10.62,64.23-16.24,7.25-2.66,10.72-10.91,7.56-17.96h-.01s-14.05-31.32-14.05-31.32c-2.05-4.57-6.5-7.61-11.51-7.85-21.08-.99-47.85,4.89-64.53,9.3-.5.13-.99.26-1.47.39-7.7,2.07-11.85,10.4-8.89,17.8Z"/>
    <path class="st3" d="M79.38,147.6l15.03,37.56c2.2,5.49,7.75,8.86,13.64,8.31,22.74-2.15,48.86-10.62,64.23-16.24,7.15-2.61,10.62-10.65,7.7-17.63-.04-.11-.09-.22-.14-.33l-14.05-31.31c-2.06-4.58-6.51-7.62-11.52-7.85-20.8-.99-47.13,4.73-63.86,9.12-.73.19-1.45.38-2.14.57-7.69,2.06-11.85,10.4-8.89,17.8Z"/>
    <path class="st3" d="M56.46,201.23c-13.64,4.99-35.73,12.21-56.42,15.28v-69c12.71-2.33,26.47-3.97,38.41-3.4,5.01.23,9.45,3.27,11.51,7.85l13.14,29.25.92,2.06c3.16,7.05-.31,15.31-7.56,17.96Z"/>
    <path class="st3" d="M85.67,318.62c-15.37,5.62-41.48,14.1-64.22,16.24-5.9.56-11.45-2.82-13.65-8.31L.04,307.16v-35.41c.26-.12.53-.22.81-.31.27-.09.54-.18.81-.25,16.56-4.45,44.29-10.72,66.01-9.69,5.01.23,9.45,3.27,11.51,7.85l14.06,31.31c.28.63.51,1.27.69,1.92,1.82,6.56-1.65,13.63-8.26,16.04Z"/>
    <path class="st3" d="M62.2,456.99c-15.61,5.7-38.4,13.32-62.16,18.79v-105.06c11.86-1.37,23.66-2.04,34.48-1.53,7.7.36,14.53,5.04,17.69,12.07l21.61,48.13c.4.88.73,1.78.98,2.68,2.98,10.17-2.36,21.18-12.6,24.92Z"/>
    <path class="st3" d="M1018.04,201.71l20.82,57.73c3.05,8.45,10.75,13.63,18.91,12.78,31.52-3.3,67.7-16.32,89.02-24.96,9.94-4.04,14.75-16.49,10.6-27.24-.03-.12-.08-.24-.13-.36l-19.48-48.14c-2.85-7.03-9.01-11.7-15.95-12.07-30.02-1.57-68.34,8.01-91.3,14.85-.06.02-.11.03-.17.05-10.67,3.17-16.42,15.98-12.32,27.36Z"/>
    <path class="st3" d="M877.88,232.23l19.67,57.73c2.88,8.45,10.16,13.64,17.87,12.78,29.79-3.29,63.98-16.32,84.12-24.96,7.91-3.4,12.39-12.77,11.26-22.07-.22-1.86-.67-3.72-1.36-5.53l-18.41-48.14c-2.69-7.03-8.51-11.7-15.08-12.07-28.43-1.57-64.75,8.06-86.43,14.9-.66.21-1.31.46-1.93.76-8.83,4.1-13.33,15.97-9.71,26.6Z"/>
    <path class="st3" d="M747.96,256.49l19.68,57.73c2.88,8.45,10.16,13.64,17.87,12.78,29.78-3.29,63.98-16.32,84.12-24.96,9.06-3.89,13.61-15.62,10.41-26.09-.15-.51-.32-1.01-.51-1.51l-18.41-48.14c-2.69-7.03-8.52-11.7-15.08-12.07-28.43-1.57-64.75,8.06-86.43,14.9-4.06,1.28-7.37,4.13-9.62,7.81-3.33,5.46-4.34,12.76-2.03,19.55Z"/>
    <path class="st3" d="M676.32,63.61l16.86,38.62c2.47,5.64,8.71,9.11,15.32,8.54,25.53-2.2,54.84-10.92,72.1-16.69,8.15-2.73,12.04-11.22,8.49-18.46l-1.31-2.67-14.47-29.53c-2.31-4.7-7.3-7.83-12.92-8.07-22.24-.96-50.1,4.32-68.93,8.72-1.81.43-3.53.84-5.16,1.24-8.65,2.13-13.31,10.69-9.98,18.3Z"/>
    <path class="st8" d="M64.69,650.38l18.51,99.94c6.22,33.62,38.87,55.56,72.35,48.62l608.76-126.18c33.62-6.97,54.1-39.84,47.38-72.06-116.45,34.82-366.8,73.38-524.74,95.73-76.43,10.81-146.73-43.53-155.51-120.23h0s-17.19,2.98-17.19,2.98c-33.46,5.8-55.74,37.81-49.56,71.2Z"/>
    <path class="st17" d="M78.89,343.98l25.05,115.04,632.34-126-13.61-39.45-471.86,82.23c-45.8,7.98-92.56-7.47-124.58-41.16h0s-47.34,9.34-47.34,9.34Z"/>
    <path class="st17" d="M1042.28,46.01c-15.37,5.62-41.49,14.1-64.23,16.24-5.89.56-11.44-2.82-13.64-8.31l-15.03-37.56c-2.49-6.23.07-13.13,5.53-16.38,1.02-.61,2.15-1.09,3.36-1.42,1.99-.53,4.14-1.09,6.42-1.66.83.95,1.61,1.92,2.34,2.87.05.07.11.14.16.21,5.31,6.86,10.6,13.71,15.9,20.56,5.76,7.45,12.48,15.48,21.82,16.75,4.97.67,9.97-.72,14.79-2.11,9.85-2.83,19.69-5.65,29.54-8.48l.6,1.34c3.17,7.04-.3,15.3-7.56,17.95Z"/>
    <path class="st17" d="M992.69,90.47l15.02,37.56c2.2,5.49,7.76,8.86,13.65,8.31,22.74-2.15,48.85-10.62,64.23-16.24,5.64-2.06,8.99-7.51,8.71-13.15-9.23,2.25-18.25,6-27.74,6.02-8.03,0-15.82-2.67-23.27-5.7-7.62-3.11-15.25-6.74-20.99-12.63-4.83-4.96-8.07-11.3-12.92-16.24-2.34-2.38-5.3-4.4-8.44-5.54-7.29,2.34-11.13,10.42-8.25,17.61Z"/>
    <path class="st17" d="M822.99,38.29l15.03,37.56c2.19,5.5,7.75,8.87,13.64,8.31,22.74-2.14,48.85-10.62,64.23-16.24,6.84-2.5,10.32-9.97,8.04-16.72-10.1,4.44-22.09,4.53-33.36,4.42-9.4-.1-19.22-.3-27.52-4.7-4.73-2.51-8.68-6.25-12.57-9.94-4.5-4.28-9.01-8.56-13.51-12.83-2.49-2.37-5.04-4.78-7.98-6.51-5.79,3.13-8.56,10.24-6,16.65Z"/>
    <path class="st17" d="M855.47,121.77l15.02,37.56c2.2,5.49,7.76,8.87,13.65,8.31,22.74-2.14,48.85-10.62,64.23-16.24,7.26-2.65,10.73-10.91,7.56-17.95l-2.29-5.11c-4.21.62-8.37,1.56-12.43,2.8-4.86,1.48-9.63,3.42-14.68,3.93-3.96.41-7.97-.08-11.92.4-3.3.4-6.53,1.48-9.86,1.38-6.4-.18-11.9-4.65-15.93-9.64-4.03-4.99-7.17-10.72-11.84-15.12-3.98-3.74-8.99-6.36-14.32-7.54-6.59,2.76-9.92,10.39-7.19,17.22Z"/>
    <path class="st17" d="M1018.04,201.71l20.82,57.73c3.05,8.45,10.75,13.63,18.91,12.78,31.52-3.3,67.7-16.32,89.02-24.96,9.94-4.04,14.75-16.49,10.6-27.24-10.9,1.95-21.8,3.89-32.69,5.83-17.11,3.06-35.6,5.94-51.18-1.77-15.91-7.88-24.8-24.78-34.25-39.8-2.35-3.74-5.13-7.65-8.74-9.98-.06.02-.11.03-.17.05-10.67,3.17-16.42,15.98-12.32,27.36Z"/>
    <path class="st17" d="M877.88,232.23l19.67,57.73c2.88,8.45,10.16,13.64,17.87,12.78,29.79-3.29,63.98-16.32,84.12-24.96,7.91-3.4,12.39-12.77,11.26-22.07-12.79,3.51-25.84,6.16-38.99,7.9-3.33.44-6.71.83-10.04.33-4.23-.63-8.12-2.66-11.91-4.65-8.23-4.33-16.46-8.66-24.69-12.98-2.36-1.25-4.76-2.51-6.7-4.36-2.06-1.96-3.5-4.49-4.98-6.92-5.45-8.93-11.99-17.19-19.43-24.55-1.94-1.9-4-3.79-6.47-4.85-8.83,4.1-13.33,15.97-9.71,26.6Z"/>
    <path class="st17" d="M676.32,63.61l16.86,38.62c2.47,5.64,8.71,9.11,15.32,8.54,25.53-2.2,54.84-10.92,72.1-16.69,8.15-2.73,12.04-11.22,8.49-18.46l-1.31-2.67c-3.53,1.4-7.27,2.34-10.96,3.26-6.18,1.54-12.37,3.08-18.55,4.62-4.14,1.03-8.31,2.07-12.57,2.28-9.43.49-18.54-3.03-27.32-6.5-1.52-.6-3.09-1.23-4.27-2.37-1.28-1.23-1.96-2.93-2.68-4.56-2.86-6.44-6.75-12.42-11.31-17.8-2.52-2.98-5.34-5.83-8.66-7.81-1.81.43-3.53.84-5.16,1.24-8.65,2.13-13.31,10.69-9.98,18.3Z"/>
    <path class="st17" d="M713.04,153.6l15.02,37.56c2.2,5.49,7.75,8.86,13.65,8.31,22.74-2.15,48.85-10.62,64.23-16.24,7.25-2.65,10.72-10.91,7.56-17.96l-1.05-2.34c-9.57,3.58-19.95,5.04-30.14,6.33-10.88,1.37-23.16,2.22-31.55-4.85-2.47-2.08-4.4-4.72-6.3-7.33-2.88-3.94-5.75-7.88-8.63-11.81-2.56-3.52-5.18-7.09-8.69-9.68-.4-.29-.81-.57-1.24-.83-1.38.35-2.71.7-3.97,1.04-7.7,2.06-11.85,10.4-8.89,17.8Z"/>
    <path class="st17" d="M554.17,78.2l15.02,37.56c2.2,5.5,7.75,8.87,13.65,8.32,22.74-2.15,48.85-10.62,64.23-16.24,6.68-2.45,10.15-9.64,8.18-16.26-10.58,3.53-21.79,5.01-32.95,5.6-11.12.6-22.81.22-32.54-5.2-7.42-4.13-13-10.8-18.88-16.93-3.81-3.96-7.79-7.74-11.95-11.32-.29-.25-.58-.5-.88-.75-4.31,3.56-6.11,9.65-3.88,15.22Z"/>
    <path class="st17" d="M594.08,169.25l15.02,37.56c2.2,5.49,7.76,8.87,13.65,8.31,22.74-2.14,48.85-10.62,64.23-16.24,7.25-2.65,10.72-10.91,7.56-17.96l-.76-1.7c-13.71,2.26-27.42,4.51-41.12,6.75-7.09,1.17-14.55,2.3-21.31-.12-6.05-2.17-10.83-6.99-14.43-12.32-3.6-5.33-6.22-11.26-9.37-16.87-1.06-1.9-2.27-3.83-3.75-5.43-.28.07-.56.15-.83.22-7.7,2.07-11.85,10.4-8.89,17.8Z"/>
    <path class="st17" d="M747.96,256.49l19.68,57.73c2.88,8.45,10.16,13.64,17.87,12.78,29.78-3.29,63.98-16.32,84.12-24.96,9.06-3.89,13.61-15.62,10.41-26.09-14.81,5.55-30.62,8.21-46.26,10.82-8.45,1.41-16.94,2.82-25.5,2.9-3.69.03-7.43-.19-10.92-1.4-2.21-.77-4.28-1.92-6.33-3.07-2.41-1.35-4.83-2.7-7.25-4.05-1.31-.73-2.66-1.49-3.66-2.61-1.42-1.59-2.01-3.72-2.64-5.75-3.19-10.33-8.5-20.07-15.9-27.96-2.97-3.17-6.38-6.1-10.48-7.55-.36-.13-.74-.24-1.11-.34-3.33,5.46-4.34,12.76-2.03,19.55Z"/>
    <path class="st17" d="M427.9,95.42l15.03,37.56c2.2,5.5,7.75,8.87,13.65,8.32,22.74-2.15,48.85-10.62,64.22-16.25.23-.09.46-.18.69-.29.71-.39,1.42-.77,2.13-1.14.01-.01.02-.02.03-.02,5.26-3.52,7.43-10.45,4.72-16.5l-1.59-3.55c-14.55,5.6-30.51,7.53-45.97,5.48-6.27-.83-12.6-2.36-17.93-5.78-10.18-6.54-15.4-19.08-25.78-25.31-.16-.09-.32-.19-.48-.27-7.58,2.14-11.66,10.4-8.72,17.75Z"/>
    <path class="st17" d="M462.08,190.12l15.02,37.56c2.2,5.49,7.76,8.87,13.65,8.31,22.74-2.14,48.85-10.62,64.23-16.24,7.25-2.65,10.72-10.91,7.56-17.96l-.62-1.38c-8.69,1.54-17.37,3.07-26.06,4.61-7.95,1.41-16.15,2.81-24.04,1.1-5.35-1.17-10.29-3.72-15.15-6.24-3.58-1.85-7.18-3.72-10.43-6.1-7.33-5.35-12.47-12.88-16.91-20.9-6.63,2.73-9.99,10.38-7.25,17.24Z"/>
    <path class="st17" d="M311.04,114.2l15.02,37.56c2.2,5.5,7.75,8.87,13.65,8.32,22.74-2.15,48.85-10.62,64.23-16.24,7.25-2.66,10.72-10.91,7.56-17.96l-.75-1.68c-4.46,1.59-9.13,2.63-13.77,3.63-17.34,3.72-35.03,7.04-52.69,5.56-2.84-.24-5.74-.63-8.25-1.96-4.2-2.23-6.63-6.7-8.83-10.91-1.4-2.68-2.8-5.37-3.9-8.19-.99-2.55-1.74-5.2-3.01-7.62-1.24-2.37-3.08-4.57-5.55-5.59-4.19,3.58-5.91,9.59-3.71,15.08Z"/>
    <path class="st17" d="M336.08,215.94l15.02,37.56c2.2,5.5,7.76,8.87,13.65,8.32,22.74-2.15,48.85-10.62,64.23-16.24,7.25-2.66,10.72-10.91,7.56-17.96l-.48-1.06c-16.49,7.67-35.3,10.37-53.28,7.53-3.94-.63-7.99-1.58-11.15-4.03-2.32-1.81-3.98-4.3-5.61-6.75-5.05-7.6-10.1-15.2-15.16-22.8-.73-1.09-1.5-2.22-2.34-3.3-1.23.31-2.42.63-3.55.93-7.7,2.07-11.85,10.4-8.89,17.8Z"/>
    <path class="st17" d="M199.38,128.81l15.03,37.56c2.2,5.5,7.75,8.87,13.64,8.32,22.74-2.15,48.86-10.62,64.23-16.24,7.23-2.65,10.7-10.84,7.6-17.87-8.71.71-17.4,1.69-25.85,3.85-9.2,2.35-18.81,6.09-27.89,3.31-4.71-1.45-8.71-4.52-12.6-7.53-10.69-8.28-21.37-16.56-32.06-24.84-2.98,3.61-3.99,8.71-2.1,13.44Z"/>
    <path class="st17" d="M227.04,238.38l15.02,37.56c2.2,5.49,7.75,8.87,13.65,8.31,22.74-2.14,48.85-10.62,64.23-16.24,7.25-2.65,10.72-10.91,7.56-17.95l-.15-.33c-12.94,2.72-25.9,5.44-38.85,8.16-2.57.54-5.16,1.08-7.78,1.06-7.65-.04-14.4-4.71-20.59-9.19-2.72-1.96-5.47-3.96-7.54-6.58-1.79-2.26-3.02-4.92-4.58-7.34-3.61-5.61-8.9-9.9-14.1-14.08-.12-.1-.24-.19-.36-.29-6.14,2.98-9.15,10.31-6.51,16.91Z"/>
    <path class="st17" d="M79.38,147.6l15.03,37.56c2.2,5.49,7.75,8.86,13.64,8.31,22.74-2.15,48.86-10.62,64.23-16.24,7.15-2.61,10.62-10.65,7.7-17.63-.63.13-1.25.26-1.88.39-4.45.93-8.9,1.86-13.35,2.79-4.46.93-8.92,1.86-13.39,2.76-11.92,2.41-24.12,4.62-36.2,3.18-1.28-.15-2.59-.36-3.68-1.05-1.66-1.04-2.48-2.97-3.2-4.78-4.14-10.41-8.1-21.05-14.71-30.08-.92-1.25-1.98-2.51-3.16-3.58-.73.19-1.45.38-2.14.57-7.69,2.06-11.85,10.4-8.89,17.8Z"/>
    <path class="st17" d="M56.46,201.23c-13.64,4.99-35.73,12.21-56.42,15.28v-31.81c4.78,2.24,10.54,2.47,15.95,2.49,15.9.05,32.23-.75,47.11-5.98l.92,2.06c3.16,7.05-.31,15.31-7.56,17.96Z"/>
    <path class="st17" d="M113.82,257.68l15.02,37.56c2.2,5.5,7.76,8.87,13.65,8.32,22.74-2.15,48.85-10.62,64.23-16.24,7.25-2.66,10.72-10.91,7.56-17.96h-.01c-5.42,2.52-11.52,3.51-17.48,4.43-4.43.69-8.85,1.38-13.27,2.07-7.75,1.2-15.79,2.4-23.33.22-6.07-1.76-11.31-5.57-16.36-9.38-1.97-1.49-3.95-3.01-5.62-4.83-4.13-4.46-6.17-10.42-9.23-15.67-1.39-2.38-3-4.63-4.8-6.71-.5.13-.99.26-1.47.39-7.7,2.07-11.85,10.4-8.89,17.8Z"/>
    <path class="st17" d="M85.67,318.62c-15.37,5.62-41.48,14.1-64.22,16.24-5.9.56-11.45-2.82-13.65-8.31L.04,307.16v-35.41c.26-.12.53-.22.81-.31.92.96,1.69,2.11,2.37,3.24,3.85,6.39,6.59,13.53,11.56,19.08,4.91,5.51,11.61,9.03,18.16,12.43,1.85.96,3.71,1.92,5.74,2.41,1.56.38,3.18.46,4.79.49,12.22.27,24.34-1.87,36.37-4.01,4.7-.84,9.39-1.67,14.09-2.5,1.82,6.56-1.65,13.63-8.26,16.04Z"/>
    <path class="st17" d="M62.2,456.99c-15.61,5.7-38.4,13.32-62.16,18.79v-28.98c.54-.08,1.07-.16,1.6-.24,24.57-3.84,48.98-8.68,73.16-14.49,2.98,10.17-2.36,21.18-12.6,24.92Z"/>
  </g>
  <g id="Layer_10">
    <path class="st2" d="M2365.88,1188.39l-3.17.97-82.29-121.27-3.62-6.34c-3.16-5.54-7.17-10.55-11.88-14.85l-8.42-7.7-.47-.46c-.11-.11-11.71-11.19-28.34-12.83-16.81-1.65-22.82,1.83-26.8,15.56-4.41,15.2-2.72,39.66-2.7,39.9.07,1-.19,1.94-.69,2.72-.91-3.01-1.74-6.14-2.37-9.18l-6.06,4.75c-.34-6.81-.89-26.71,3.17-40.7,5.2-17.9,15.39-24.07,36.33-22.01,2.86.28,5.59.79,8.16,1.46,13.55,3.5,22.81,11.34,25.07,13.41l11.71,10.68c4.07,3.71,7.52,8.06,10.22,12.86l5.14,9.15,2.48,3.65,74.77,110.2c5.45-3.36,16.29-13.7,12-41.32-3.67-23.64-30.49-64.23-50.92-92.39l7.46-5.12c20.92,28.82,48.39,70.62,52.35,96.13,6.78,43.65-19.98,52.38-21.13,52.73Z"/>
    <path class="st7" d="M2169.5,1084.7l24.26-20.8,1.37,11.02.07,7.24s-12.91,8.15-13.11,8.22-8.87-.52-8.87-.52l-3.72-5.15Z"/>
    <path class="st9" d="M1755.01,403.08c-23.17,0-37.94-14.82-43.05-23.9-1.17-1.84-6.36-10.57-7.88-22.26-1.58-12.2.5-30.02,19.39-45.63,1.9-1.63,24.36-20.3,51.21-16.46l94.04-88.87c3.21-3.03,8.27-2.89,11.31.32,3.03,3.21,2.89,8.27-.32,11.31l-97,91.67c-1.95,1.84-4.7,2.59-7.31,1.98-21.28-4.97-41.33,12.05-41.53,12.22-.04.04-.11.09-.15.13-10.53,8.68-15.18,19.03-13.84,30.76,1.07,9.31,5.56,16.24,5.61,16.31.14.21.23.36.35.58.43.75,11.43,19.58,36.4,15.21,26.55-4.64,36.42-28.55,36.52-28.79.85-2.11,2.55-3.76,4.68-4.54l126.97-46.29c4.15-1.52,8.74.62,10.26,4.78s-.62,8.74-4.78,10.26l-123.89,45.17c-4.41,8.51-18.26,30.15-47,35.18-3.48.61-6.82.89-9.99.89Z"/>
    <polygon class="st20" points="1948.28 97 2085.93 309.75 1984.05 373.43 1980.46 367.82 1969.83 371.14 1959.27 374.43 1841.43 189.32 1846.48 179.61 1852.63 167.75 1849.18 162.34 1948.28 97"/>
    <path class="st21" d="M1852.63,167.75l127.83,200.07-10.63,3.32c-22.22-34.25-110.84-172.04-123.36-191.53l6.16-11.87Z"/>
    <path class="st9" d="M161.19,1200.05c2.95-22.98,19.54-35.74,29.2-39.64,1.98-.92,11.3-4.96,23.08-4.97,12.3-.01,29.71,4.32,42.79,25.05,1.38,2.1,17.02,26.75,9.8,52.89l76.15,104.61c2.6,3.57,1.81,8.58-1.76,11.18-3.57,2.6-8.58,1.81-11.18-1.76l-78.54-107.9c-1.58-2.17-1.97-4.99-1.03-7.5,7.64-20.47-6.68-42.53-6.82-42.75-.03-.05-.08-.12-.11-.17-7.27-11.55-16.94-17.49-28.74-17.65-9.37-.13-16.82,3.44-16.89,3.48-.23.11-.39.19-.62.27-.8.33-20.88,8.84-19.73,34.16,1.22,26.92,23.67,39.77,23.9,39.89,1.98,1.11,3.4,3.01,3.9,5.23l29.71,131.84c.97,4.31-1.73,8.59-6.04,9.56s-8.59-1.74-9.56-6.05l-28.99-128.65c-7.88-5.46-27.58-21.96-28.9-51.11-.16-3.53,0-6.87.4-10.02Z"/>
    <polygon class="st3" points="440.11 1430.79 211.54 1540.17 161.38 1431 167.4 1428.16 165.47 1417.19 163.54 1406.29 362.18 1313.03 371.16 1319.28 382.15 1326.9 387.95 1324.16 440.11 1430.79"/>
    <path class="st17" d="M382.15,1326.9l-214.75,101.26-1.94-10.97c36.8-17.67,184.78-87.98,205.7-97.92l10.98,7.62Z"/>
  </g>
</svg>